<?xml version="1.0" encoding="UTF-8" standalone="no"?>
<!DOCTYPE svg PUBLIC "-//W3C//DTD SVG 1.1//EN"
 "http://www.w3.org/Graphics/SVG/1.1/DTD/svg11.dtd">
<!-- Generated by graphviz version 12.2.1 (20241206.2353)
 -->
<!-- Title: G Pages: 1 -->
<svg width="1045pt" height="589pt"
 viewBox="0.00 0.00 1045.15 589.00" xmlns="http://www.w3.org/2000/svg" xmlns:xlink="http://www.w3.org/1999/xlink">
<g id="graph0" class="graph" transform="scale(1 1) rotate(0) translate(4 585)">
<title>G</title>
<polygon fill="#f9f9f9" stroke="none" points="-4,4 -4,-585 1041.15,-585 1041.15,4 -4,4"/>
<g id="clust1" class="cluster">
<title>cluster_1</title>
<polygon fill="#5dade2" fill-opacity="0.125490" stroke="#5dade2" stroke-width="2" points="42.45,-8 42.45,-356 1029.15,-356 1029.15,-8 42.45,-8"/>
<text text-anchor="middle" x="535.8" y="-338.7" font-family="Arial" font-size="14.00">root</text>
</g>
<g id="clust2" class="cluster">
<title>cluster_2</title>
<polygon fill="#3498db" fill-opacity="0.125490" stroke="#3498db" stroke-width="2" points="314.04,-88 314.04,-272 1021.15,-272 1021.15,-88 314.04,-88"/>
<text text-anchor="middle" x="667.59" y="-254.7" font-family="Arial" font-size="14.00">webview&#45;sys</text>
</g>
<g id="clust3" class="cluster">
<title>cluster_legend</title>
<polygon fill="#f9f9f9" stroke="gray" stroke-width="2" stroke-dasharray="5,2" points="8,-364 8,-573 482.59,-573 482.59,-364 8,-364"/>
<text text-anchor="middle" x="245.29" y="-555.7" font-family="Arial" font-size="14.00">Legend</text>
</g>
<!-- n0 -->
<g id="node1" class="node">
<title>n0</title>
<polygon fill="#5dade2" stroke="black" stroke-width="1.5" points="116.9,-183.28 113.9,-187.28 92.9,-187.28 89.9,-183.28 50.45,-183.28 50.45,-138.72 116.9,-138.72 116.9,-183.28"/>
<text text-anchor="middle" x="83.67" y="-155.57" font-family="Arial" font-size="14.00">root</text>
</g>
<!-- n4 -->
<g id="node2" class="node">
<title>n4</title>
<ellipse fill="#eb984e" stroke="black" stroke-width="1.5" cx="381.89" cy="-48" rx="139.8" ry="31.5"/>
<text text-anchor="middle" x="381.89" y="-42.58" font-family="Arial" font-size="14.00">cargo (.): web&#45;view v0.6.2</text>
</g>
<!-- n0&#45;&gt;n4 -->
<g id="edge4" class="edge">
<title>n0&#45;&gt;n4</title>
<path fill="none" stroke="blue" d="M117.38,-153.57C169.86,-153.57 265.15,-153.57 265.15,-153.57 265.15,-153.57 265.15,-74.95 265.15,-74.95"/>
<polygon fill="blue" stroke="blue" points="267.95,-74.95 265.15,-66.95 262.35,-74.95 267.95,-74.95"/>
<text text-anchor="middle" x="196.72" y="-94.5" font-family="Arial" font-size="10.00" fill="gray">Contain</text>
</g>
<!-- n2 -->
<g id="node3" class="node">
<title>n2</title>
<polygon fill="#3498db" stroke="black" stroke-width="1.5" points="441.74,-183.28 438.74,-187.28 417.74,-187.28 414.74,-183.28 322.04,-183.28 322.04,-138.72 441.74,-138.72 441.74,-183.28"/>
<text text-anchor="middle" x="381.89" y="-155.57" font-family="Arial" font-size="14.00">webview&#45;sys</text>
</g>
<!-- n0&#45;&gt;n2 -->
<g id="edge2" class="edge">
<title>n0&#45;&gt;n2</title>
<path fill="none" stroke="blue" d="M117.3,-168.43C117.3,-168.43 312.08,-168.43 312.08,-168.43"/>
<polygon fill="blue" stroke="blue" points="312.08,-171.23 320.08,-168.43 312.08,-165.63 312.08,-171.23"/>
<text text-anchor="middle" x="196.72" y="-163.5" font-family="Arial" font-size="10.00" fill="gray">Contain</text>
</g>
<!-- n1 -->
<g id="node6" class="node">
<title>n1</title>
<polygon fill="#fadbd8" stroke="black" points="430.86,-324.27 326.91,-324.27 326.91,-279.73 436.86,-279.73 436.86,-318.27 430.86,-324.27"/>
<polyline fill="none" stroke="black" points="430.86,-324.27 430.86,-318.27"/>
<polyline fill="none" stroke="black" points="436.86,-318.27 430.86,-318.27"/>
<text text-anchor="middle" x="381.89" y="-296.57" font-family="Arial" font-size="14.00">Cargo.toml</text>
</g>
<!-- n0&#45;&gt;n1 -->
<g id="edge1" class="edge">
<title>n0&#45;&gt;n1</title>
<path fill="none" stroke="blue" d="M84.15,-183.65C84.15,-223.51 84.15,-302 84.15,-302 84.15,-302 317.07,-302 317.07,-302"/>
<polygon fill="blue" stroke="blue" points="317.07,-304.8 325.07,-302 317.07,-299.2 317.07,-304.8"/>
<text text-anchor="middle" x="196.72" y="-271.5" font-family="Arial" font-size="10.00" fill="gray">Contain</text>
</g>
<!-- n5 -->
<g id="node4" class="node">
<title>n5</title>
<ellipse fill="#eb984e" stroke="black" stroke-width="1.5" cx="802.29" cy="-128" rx="210.86" ry="31.5"/>
<text text-anchor="middle" x="802.29" y="-122.58" font-family="Arial" font-size="14.00">cargo (./webview&#45;sys): webview&#45;sys v0.5.0</text>
</g>
<!-- n2&#45;&gt;n5 -->
<g id="edge5" class="edge">
<title>n2&#45;&gt;n5</title>
<path fill="none" stroke="blue" d="M442.12,-149.11C442.12,-149.11 634.24,-149.11 634.24,-149.11"/>
<polygon fill="blue" stroke="blue" points="634.24,-151.91 642.24,-149.11 634.24,-146.31 634.24,-151.91"/>
<text text-anchor="middle" x="556.56" y="-148.5" font-family="Arial" font-size="10.00" fill="gray">Contain</text>
</g>
<!-- n3 -->
<g id="node5" class="node">
<title>n3</title>
<polygon fill="#fadbd8" stroke="black" points="851.26,-240.28 747.31,-240.28 747.31,-195.72 857.26,-195.72 857.26,-234.28 851.26,-240.28"/>
<polyline fill="none" stroke="black" points="851.26,-240.28 851.26,-234.28"/>
<polyline fill="none" stroke="black" points="857.26,-234.28 851.26,-234.28"/>
<text text-anchor="middle" x="802.29" y="-212.57" font-family="Arial" font-size="14.00">Cargo.toml</text>
</g>
<!-- n2&#45;&gt;n3 -->
<g id="edge3" class="edge">
<title>n2&#45;&gt;n3</title>
<path fill="none" stroke="blue" d="M442.1,-171.39C558.31,-171.39 802.15,-171.39 802.15,-171.39 802.15,-171.39 802.15,-185.73 802.15,-185.73"/>
<polygon fill="blue" stroke="blue" points="799.35,-185.73 802.15,-193.73 804.95,-185.73 799.35,-185.73"/>
<text text-anchor="middle" x="556.56" y="-210.5" font-family="Arial" font-size="10.00" fill="gray">Contain</text>
</g>
<!-- dir -->
<g id="node7" class="node">
<title>dir</title>
<polygon fill="#5dade2" stroke="black" points="132.27,-429.27 129.27,-433.27 108.27,-433.27 105.27,-429.27 35.07,-429.27 35.07,-384.73 132.27,-384.73 132.27,-429.27"/>
<text text-anchor="middle" x="83.67" y="-401.57" font-family="Arial" font-size="14.00">Directory</text>
</g>
<!-- file -->
<g id="node8" class="node">
<title>file</title>
<polygon fill="#fadbd8" stroke="black" points="408.36,-416.27 349.41,-416.27 349.41,-371.73 414.36,-371.73 414.36,-410.27 408.36,-416.27"/>
<polyline fill="none" stroke="black" points="408.36,-416.27 408.36,-410.27"/>
<polyline fill="none" stroke="black" points="414.36,-410.27 408.36,-410.27"/>
<text text-anchor="middle" x="381.89" y="-388.57" font-family="Arial" font-size="14.00">File</text>
</g>
<!-- dir&#45;&gt;file -->
<g id="edge6" class="edge">
<title>dir&#45;&gt;file</title>
<path fill="none" stroke="blue" d="M132.58,-400.5C132.58,-400.5 337.59,-400.5 337.59,-400.5"/>
<polygon fill="blue" stroke="blue" points="337.59,-404 347.59,-400.5 337.59,-397 337.59,-404"/>
<text text-anchor="middle" x="196.72" y="-410.5" font-family="Arial" font-size="10.00" fill="gray">Contain</text>
</g>
<!-- pkg -->
<g id="node9" class="node">
<title>pkg</title>
<ellipse fill="#eb984e" stroke="black" cx="83.67" cy="-497" rx="67.67" ry="31.5"/>
<text text-anchor="middle" x="83.67" y="-491.57" font-family="Arial" font-size="14.00">Package</text>
</g>
<!-- ext -->
<g id="node10" class="node">
<title>ext</title>
<polygon fill="#ec7063" stroke="black" points="436.02,-541.55 327.75,-541.55 289.19,-452.45 474.59,-452.45 436.02,-541.55"/>
<text text-anchor="middle" x="381.89" y="-491.57" font-family="Arial" font-size="14.00">External</text>
</g>
<!-- pkg&#45;&gt;ext -->
<g id="edge7" class="edge">
<title>pkg&#45;&gt;ext</title>
<path fill="none" stroke="red" stroke-dasharray="5,2" d="M151.71,-497C151.71,-497 296.62,-497 296.62,-497"/>
<polygon fill="red" stroke="red" points="296.62,-500.5 306.62,-497 296.62,-493.5 296.62,-500.5"/>
<text text-anchor="middle" x="196.72" y="-499.5" font-family="Arial" font-size="10.00" fill="gray">Dependency</text>
</g>
</g>
</svg>
