<?xml version="1.0" encoding="UTF-8" standalone="no"?>
<!DOCTYPE svg PUBLIC "-//W3C//DTD SVG 1.1//EN"
 "http://www.w3.org/Graphics/SVG/1.1/DTD/svg11.dtd">
<!-- Generated by graphviz version 12.2.1 (20241206.2353)
 -->
<!-- Title: G Pages: 1 -->
<svg width="574pt" height="425pt"
 viewBox="0.00 0.00 574.32 425.00" xmlns="http://www.w3.org/2000/svg" xmlns:xlink="http://www.w3.org/1999/xlink">
<g id="graph0" class="graph" transform="scale(1 1) rotate(0) translate(4 421)">
<title>G</title>
<polygon fill="#f9f9f9" stroke="none" points="-4,4 -4,-421 570.32,-421 570.32,4 -4,4"/>
<g id="clust1" class="cluster">
<title>cluster_1</title>
<polygon fill="#5dade2" fill-opacity="0.125490" stroke="#5dade2" stroke-width="2" points="42.45,-8 42.45,-192 558.32,-192 558.32,-8 42.45,-8"/>
<text text-anchor="middle" x="300.38" y="-174.7" font-family="Arial" font-size="14.00">root</text>
</g>
<g id="clust2" class="cluster">
<title>cluster_legend</title>
<polygon fill="#f9f9f9" stroke="gray" stroke-width="2" stroke-dasharray="5,2" points="8,-200 8,-409 496.9,-409 496.9,-200 8,-200"/>
<text text-anchor="middle" x="252.45" y="-391.7" font-family="Arial" font-size="14.00">Legend</text>
</g>
<!-- n0 -->
<g id="node1" class="node">
<title>n0</title>
<polygon fill="#5dade2" stroke="black" stroke-width="1.5" points="116.9,-120.28 113.9,-124.28 92.9,-124.28 89.9,-120.28 50.45,-120.28 50.45,-75.72 116.9,-75.72 116.9,-120.28"/>
<text text-anchor="middle" x="83.67" y="-92.58" font-family="Arial" font-size="14.00">root</text>
</g>
<!-- n2 -->
<g id="node2" class="node">
<title>n2</title>
<ellipse fill="#eb984e" stroke="black" stroke-width="1.5" cx="396.2" cy="-48" rx="154.11" ry="31.5"/>
<text text-anchor="middle" x="396.2" y="-42.58" font-family="Arial" font-size="14.00">cargo (.): webview&#45;sys v0.5.0</text>
</g>
<!-- n0&#45;&gt;n2 -->
<g id="edge2" class="edge">
<title>n0&#45;&gt;n2</title>
<path fill="none" stroke="blue" d="M116.96,-97.61C171.12,-97.61 272.32,-97.61 272.32,-97.61 272.32,-97.61 272.32,-76.55 272.32,-76.55"/>
<polygon fill="blue" stroke="blue" points="275.12,-76.55 272.32,-68.55 269.52,-76.55 275.12,-76.55"/>
<text text-anchor="middle" x="196.72" y="-70.5" font-family="Arial" font-size="10.00" fill="gray">Contain</text>
</g>
<!-- n1 -->
<g id="node3" class="node">
<title>n1</title>
<polygon fill="#fadbd8" stroke="black" points="445.18,-160.28 341.23,-160.28 341.23,-115.72 451.18,-115.72 451.18,-154.28 445.18,-160.28"/>
<polyline fill="none" stroke="black" points="445.18,-160.28 445.18,-154.28"/>
<polyline fill="none" stroke="black" points="451.18,-154.28 445.18,-154.28"/>
<text text-anchor="middle" x="396.2" y="-132.57" font-family="Arial" font-size="14.00">Cargo.toml</text>
</g>
<!-- n0&#45;&gt;n1 -->
<g id="edge1" class="edge">
<title>n0&#45;&gt;n1</title>
<path fill="none" stroke="blue" d="M83.32,-120.62C83.32,-130.67 83.32,-140.28 83.32,-140.28 83.32,-140.28 331.47,-140.28 331.47,-140.28"/>
<polygon fill="blue" stroke="blue" points="331.47,-143.08 339.47,-140.28 331.47,-137.48 331.47,-143.08"/>
<text text-anchor="middle" x="196.72" y="-131.5" font-family="Arial" font-size="10.00" fill="gray">Contain</text>
</g>
<!-- dir -->
<g id="node4" class="node">
<title>dir</title>
<polygon fill="#5dade2" stroke="black" points="132.27,-265.27 129.27,-269.27 108.27,-269.27 105.27,-265.27 35.07,-265.27 35.07,-220.72 132.27,-220.72 132.27,-265.27"/>
<text text-anchor="middle" x="83.67" y="-237.57" font-family="Arial" font-size="14.00">Directory</text>
</g>
<!-- file -->
<g id="node5" class="node">
<title>file</title>
<polygon fill="#fadbd8" stroke="black" points="422.68,-252.28 363.73,-252.28 363.73,-207.72 428.68,-207.72 428.68,-246.28 422.68,-252.28"/>
<polyline fill="none" stroke="black" points="422.68,-252.28 422.68,-246.28"/>
<polyline fill="none" stroke="black" points="428.68,-246.28 422.68,-246.28"/>
<text text-anchor="middle" x="396.2" y="-224.57" font-family="Arial" font-size="14.00">File</text>
</g>
<!-- dir&#45;&gt;file -->
<g id="edge3" class="edge">
<title>dir&#45;&gt;file</title>
<path fill="none" stroke="blue" d="M132.5,-236.5C132.5,-236.5 351.98,-236.5 351.98,-236.5"/>
<polygon fill="blue" stroke="blue" points="351.98,-240 361.98,-236.5 351.98,-233 351.98,-240"/>
<text text-anchor="middle" x="196.72" y="-246.5" font-family="Arial" font-size="10.00" fill="gray">Contain</text>
</g>
<!-- pkg -->
<g id="node6" class="node">
<title>pkg</title>
<ellipse fill="#eb984e" stroke="black" cx="83.67" cy="-333" rx="67.67" ry="31.5"/>
<text text-anchor="middle" x="83.67" y="-327.57" font-family="Arial" font-size="14.00">Package</text>
</g>
<!-- ext -->
<g id="node7" class="node">
<title>ext</title>
<polygon fill="#ec7063" stroke="black" points="450.34,-377.55 342.07,-377.55 303.5,-288.45 488.9,-288.45 450.34,-377.55"/>
<text text-anchor="middle" x="396.2" y="-327.57" font-family="Arial" font-size="14.00">External</text>
</g>
<!-- pkg&#45;&gt;ext -->
<g id="edge4" class="edge">
<title>pkg&#45;&gt;ext</title>
<path fill="none" stroke="red" stroke-dasharray="5,2" d="M151.49,-333C151.49,-333 310.73,-333 310.73,-333"/>
<polygon fill="red" stroke="red" points="310.73,-336.5 320.73,-333 310.73,-329.5 310.73,-336.5"/>
<text text-anchor="middle" x="196.72" y="-335.5" font-family="Arial" font-size="10.00" fill="gray">Dependency</text>
</g>
</g>
</svg>
